<svg id="e2WoJSdenQT1" xmlns="http://www.w3.org/2000/svg" xmlns:xlink="http://www.w3.org/1999/xlink" viewBox="0 0 300 300" shape-rendering="geometricPrecision" text-rendering="geometricPrecision" project-id="79fb124358d84ca9b03159556fb2748b" export-id="a32e5cd383904d238d96afc15f64b052" cached="false"><g transform="matrix(2.6 0 0 2.6-240-240)"><ellipse rx="30" ry="30" transform="matrix(.9 0 0 0.9 150 150)" fill="#fbb500" stroke-width="0"/><line x1="0" y1="15.862054" x2="0" y2="-15.862054" transform="matrix(1 0 0 0.75904 150 107.960067)" fill="#fbb500" stroke="#fbb500" stroke-width="3" stroke-linecap="round"/><line x1="0" y1="15.862054" x2="0" y2="-15.862054" transform="matrix(1 0 0 0.75904 150 192.039933)" fill="#fbb500" stroke="#fbb500" stroke-width="3" stroke-linecap="round"/><line x1="0" y1="15.862054" x2="0" y2="-15.862054" transform="matrix(0-1 0.75904 0 192.039933 150)" fill="#fbb500" stroke="#fbb500" stroke-width="3" stroke-linecap="round"/><line x1="0" y1="15.862054" x2="0" y2="-15.862054" transform="matrix(0-1 0.75904 0 107.960067 150)" fill="#fbb500" stroke="#fbb500" stroke-width="3" stroke-linecap="round"/><line x1="0" y1="15.862054" x2="0" y2="-15.862054" transform="matrix(.707107 0.707107-.536722 0.536722 180 120)" fill="#fbb500" stroke="#fbb500" stroke-width="3" stroke-linecap="round"/><line x1="0" y1="15.862054" x2="0" y2="-15.862054" transform="matrix(.707107-.707107 0.536722 0.536722 120 120.313574)" fill="#fbb500" stroke="#fbb500" stroke-width="3" stroke-linecap="round"/><line x1="0" y1="15.862054" x2="0" y2="-15.862054" transform="matrix(.707107-.707107 0.536722 0.536722 180 180)" fill="#fbb500" stroke="#fbb500" stroke-width="3" stroke-linecap="round"/><line x1="0" y1="15.862054" x2="0" y2="-15.862054" transform="matrix(.707107 0.707107-.536722 0.536722 120 180)" fill="#fbb500" stroke="#fbb500" stroke-width="3" stroke-linecap="round"/></g></svg>
