<svg id="emqgJGTK0e11" xmlns="http://www.w3.org/2000/svg" xmlns:xlink="http://www.w3.org/1999/xlink" viewBox="0 0 300 300" shape-rendering="geometricPrecision" text-rendering="geometricPrecision" project-id="79fb124358d84ca9b03159556fb2748b" export-id="ffec82b77a9040fc96c3fcdaeac60c13" cached="false"><g transform="matrix(2.6 0 0 2.6-315.255187 9.392354)"><g transform="translate(28.717737-95.920135)"><ellipse rx="30" ry="30" transform="matrix(.9 0 0 0.9 150 150)" fill="#fbb500" stroke-width="0"/><line x1="0" y1="15.862054" x2="0" y2="-15.862054" transform="matrix(1 0 0 0.75904 150 107.960067)" fill="#fbb500" stroke="#fbb500" stroke-width="3" stroke-linecap="round"/><line x1="0" y1="15.862054" x2="0" y2="-15.862054" transform="matrix(1 0 0 0.75904 150 192.039933)" fill="#fbb500" stroke="#fbb500" stroke-width="3" stroke-linecap="round"/><line x1="0" y1="15.862054" x2="0" y2="-15.862054" transform="matrix(0-1 0.75904 0 192.039933 150)" fill="#fbb500" stroke="#fbb500" stroke-width="3" stroke-linecap="round"/><line x1="0" y1="15.862054" x2="0" y2="-15.862054" transform="matrix(0-1 0.75904 0 107.960067 150)" fill="#fbb500" stroke="#fbb500" stroke-width="3" stroke-linecap="round"/><line x1="0" y1="15.862054" x2="0" y2="-15.862054" transform="matrix(.707107 0.707107-.536722 0.536722 180 120)" fill="#fbb500" stroke="#fbb500" stroke-width="3" stroke-linecap="round"/><line x1="0" y1="15.862054" x2="0" y2="-15.862054" transform="matrix(.707107-.707107 0.536722 0.536722 120 120.313574)" fill="#fbb500" stroke="#fbb500" stroke-width="3" stroke-linecap="round"/><line x1="0" y1="15.862054" x2="0" y2="-15.862054" transform="matrix(.707107-.707107 0.536722 0.536722 180 180)" fill="#fbb500" stroke="#fbb500" stroke-width="3" stroke-linecap="round"/><line x1="0" y1="15.862054" x2="0" y2="-15.862054" transform="matrix(.707107 0.707107-.536722 0.536722 120 180)" fill="#fbb500" stroke="#fbb500" stroke-width="3" stroke-linecap="round"/></g><g transform="matrix(1.05 0 0 1.05 22.788024-120.769343)"><g transform="matrix(1.33 0 0 1.33 65.364948-67.229999)"><ellipse rx="30" ry="30" transform="matrix(.4 0 0 0.401331 63.566345 183.048292)" fill="#d2dbed" stroke-width="0"/><ellipse rx="30" ry="30" transform="matrix(.6 0 0 0.6 84.079865 177.088222)" fill="#d2dbed" stroke-width="0"/><rect width="30" height="30" rx="0" ry="0" transform="matrix(.712568 0 0 0.232434 62.702824 188.115202)" fill="#d2dbed" stroke-width="0"/></g><g transform="matrix(.9 0 0 0.9 101.487469 16.471378)"><ellipse rx="30" ry="30" transform="matrix(.4 0 0 0.401331 63.566345 183.048292)" fill="#bbc4d6" stroke-width="0"/><ellipse rx="30" ry="30" transform="matrix(.6 0 0 0.6 84.079865 177.088222)" fill="#bbc4d6" stroke-width="0"/><rect width="30" height="30" rx="0" ry="0" transform="matrix(.712568 0 0 0.232434 62.702824 188.115202)" fill="#bbc4d6" stroke-width="0"/></g></g></g></svg>
