<svg id="esza2jMf6IZ1" xmlns="http://www.w3.org/2000/svg" xmlns:xlink="http://www.w3.org/1999/xlink" viewBox="0 0 300 300" shape-rendering="geometricPrecision" text-rendering="geometricPrecision" project-id="79fb124358d84ca9b03159556fb2748b" export-id="d9fd156572c9418b9d7e8ecba92cf7bc" cached="false"><g transform="matrix(3.5 0 0 3.5-421.299936-367.586744)"><g transform="matrix(1.1 0 0 1.1-20.091391-40.906889)"><g transform="matrix(1.33 0 0 1.33 66.793066-67.416555)"><ellipse rx="30" ry="30" transform="matrix(.4 0 0 0.401331 63.566345 183.048292)" fill="#d2dbed" stroke-width="0"/><ellipse rx="30" ry="30" transform="matrix(.6 0 0 0.6 84.079865 177.088222)" fill="#d2dbed" stroke-width="0"/><rect width="30" height="30" rx="0" ry="0" transform="matrix(.712568 0 0 0.232434 62.702824 188.115202)" fill="#d2dbed" stroke-width="0"/></g><g transform="matrix(.9 0 0 0.9 101.487469 16.471378)"><ellipse rx="30" ry="30" transform="matrix(.4 0 0 0.401331 63.566345 183.048292)" fill="#bbc4d6" stroke-width="0"/><ellipse rx="30" ry="30" transform="matrix(.6 0 0 0.6 84.079865 177.088222)" fill="#bbc4d6" stroke-width="0"/><rect width="30" height="30" rx="0" ry="0" transform="matrix(.712568 0 0 0.232434 62.702824 188.115202)" fill="#bbc4d6" stroke-width="0"/></g></g><g><line x1="-23.78364" y1="0" x2="23.78364" y2="0" transform="matrix(.890421 0 0 1 146.378544 173.846758)" fill="none" stroke="#bbc4d6" stroke-width="3" stroke-linecap="round"/><line x1="-23.78364" y1="0" x2="23.78364" y2="0" transform="translate(176.389824 178.082868)" fill="none" stroke="#bbc4d6" stroke-width="3" stroke-linecap="round"/><line x1="-15" y1="0" x2="15" y2="0" transform="matrix(1.005141 0 0 1 186.290681 173.846758)" fill="none" stroke="#d2dbed" stroke-width="3" stroke-linecap="round"/><line x1="-15" y1="0" x2="15" y2="0" transform="matrix(.829244 0 0 1 136.17192 178.082868)" fill="none" stroke="#d2dbed" stroke-width="3" stroke-linecap="round"/></g></g></svg>
