<svg id="eE8tU6R1IHc1" xmlns="http://www.w3.org/2000/svg" xmlns:xlink="http://www.w3.org/1999/xlink" viewBox="0 0 300 300" shape-rendering="geometricPrecision" text-rendering="geometricPrecision" project-id="79fb124358d84ca9b03159556fb2748b" export-id="98324c200d334280bdebd3175c78f530" cached="false"><g transform="matrix(4 0 0 4-453.565355-733.755088)"><g transform="matrix(.736394 0 0 0.958447-59.966884 80.767912)"><g transform="translate(0 0.000001)"><line x1="0" y1="-6.260029" x2="0" y2="6.260029" transform="translate(287.129602 176.058954)" fill="none" stroke="#8eaeee" stroke-width="3" stroke-linecap="round"/></g></g><g transform="matrix(.736394 0 0 0.958447-54.952587 80.767904)"><g transform="translate(0 0.000001)"><line x1="0" y1="-6.260029" x2="0" y2="6.260029" transform="translate(287.129602 176.058954)" fill="none" stroke="#8eaeee" stroke-width="3" stroke-linecap="round"/></g></g><g transform="matrix(.736394 0 0 0.958447-49.932567 80.768024)"><g transform="translate(0 0.000001)"><line x1="0" y1="-6.260029" x2="0" y2="6.260029" transform="translate(287.129602 176.058954)" fill="none" stroke="#8eaeee" stroke-width="3" stroke-linecap="round"/></g></g><g transform="matrix(.736394 0 0 0.958447-65.569876 80.76792)"><g transform="translate(0 0.000001)"><line x1="0" y1="-6.260029" x2="0" y2="6.260029" transform="translate(287.129602 176.058954)" fill="none" stroke="#8eaeee" stroke-width="3" stroke-linecap="round"/></g></g><g transform="translate(96.811459-3.000005)"><g transform="matrix(1.1 0 0 1.1-131.784719 33.028537)"><g transform="matrix(1.33 0 0 1.33 66.793066-67.416555)"><ellipse rx="30" ry="30" transform="matrix(.4 0 0 0.401331 63.566345 183.048292)" fill="#d2dbed" stroke-width="0"/><ellipse rx="30" ry="30" transform="matrix(.6 0 0 0.6 84.079865 177.088222)" fill="#d2dbed" stroke-width="0"/><rect width="30" height="30" rx="0" ry="0" transform="matrix(.712568 0 0 0.232434 62.702824 188.115202)" fill="#d2dbed" stroke-width="0"/></g><g transform="matrix(.9 0 0 0.9 101.487469 16.471378)"><ellipse rx="30" ry="30" transform="matrix(.4 0 0 0.401331 63.566345 183.048292)" fill="#bbc4d6" stroke-width="0"/><ellipse rx="30" ry="30" transform="matrix(.6 0 0 0.6 84.079865 177.088222)" fill="#bbc4d6" stroke-width="0"/><rect width="30" height="30" rx="0" ry="0" transform="matrix(.712568 0 0 0.232434 62.702824 188.115202)" fill="#bbc4d6" stroke-width="0"/></g></g></g></g></svg>
