<svg id="eQMPJHCbt3Z1" xmlns="http://www.w3.org/2000/svg" xmlns:xlink="http://www.w3.org/1999/xlink" viewBox="0 0 300 300" shape-rendering="geometricPrecision" text-rendering="geometricPrecision" project-id="79fb124358d84ca9b03159556fb2748b" export-id="92760fa6da364f93b86815fe9c685d9a" cached="false"><g transform="matrix(4 0 0 4-878.598816-1608.429198)"><g transform="translate(-39.547618 290.036406)"><g transform="translate(0 0.000001)"><line x1="0" y1="-6.260029" x2="0" y2="6.260029" transform="translate(287.129602 176.058954)" fill="none" stroke="#8eaeee" stroke-width="3" stroke-linecap="round"/><line x1="0" y1="-6.260029" x2="0" y2="6.260029" transform="matrix(0-1 1 0 287.129602 176.058954)" fill="none" stroke="#8eaeee" stroke-width="3" stroke-linecap="round"/></g><g transform="matrix(.707107 0.707107-.707107 0.707107 207.392372-148.571542)"><line x1="0" y1="-6.260029" x2="0" y2="6.260029" transform="translate(285.931171 173.165691)" fill="none" stroke="#8eaeee" stroke-width="3" stroke-linecap="round"/><line x1="0" y1="-6.260029" x2="0" y2="6.260029" transform="matrix(0-1 1 0 285.931171 173.165691)" fill="none" stroke="#8eaeee" stroke-width="3" stroke-linecap="round"/></g></g><g transform="translate(-23.412501 290.036295)"><g transform="translate(0 0.000001)"><line x1="0" y1="-6.260029" x2="0" y2="6.260029" transform="translate(287.129602 176.058954)" fill="none" stroke="#8eaeee" stroke-width="3" stroke-linecap="round"/><line x1="0" y1="-6.260029" x2="0" y2="6.260029" transform="matrix(0-1 1 0 287.129602 176.058954)" fill="none" stroke="#8eaeee" stroke-width="3" stroke-linecap="round"/></g><g transform="matrix(.707107 0.707107-.707107 0.707107 207.392372-148.571542)"><line x1="0" y1="-6.260029" x2="0" y2="6.260029" transform="translate(285.931171 173.165691)" fill="none" stroke="#8eaeee" stroke-width="3" stroke-linecap="round"/><line x1="0" y1="-6.260029" x2="0" y2="6.260029" transform="matrix(0-1 1 0 285.931171 173.165691)" fill="none" stroke="#8eaeee" stroke-width="3" stroke-linecap="round"/></g></g><g transform="matrix(1.1 0 0 1.1 71.285124 245.986587)"><g transform="matrix(1.33 0 0 1.33 66.793066-67.416555)"><ellipse rx="30" ry="30" transform="matrix(.4 0 0 0.401331 63.566345 183.048292)" fill="#d2dbed" stroke-width="0"/><ellipse rx="30" ry="30" transform="matrix(.6 0 0 0.6 84.079865 177.088222)" fill="#d2dbed" stroke-width="0"/><rect width="30" height="30" rx="0" ry="0" transform="matrix(.712568 0 0 0.232434 62.702824 188.115202)" fill="#d2dbed" stroke-width="0"/></g><g transform="matrix(.9 0 0 0.9 101.487469 16.471378)"><ellipse rx="30" ry="30" transform="matrix(.4 0 0 0.401331 63.566345 183.048292)" fill="#bbc4d6" stroke-width="0"/><ellipse rx="30" ry="30" transform="matrix(.6 0 0 0.6 84.079865 177.088222)" fill="#bbc4d6" stroke-width="0"/><rect width="30" height="30" rx="0" ry="0" transform="matrix(.712568 0 0 0.232434 62.702824 188.115202)" fill="#bbc4d6" stroke-width="0"/></g></g></g></svg>
