<svg id="eamFWpBl9hs1" xmlns="http://www.w3.org/2000/svg" xmlns:xlink="http://www.w3.org/1999/xlink" viewBox="0 0 300 300" shape-rendering="geometricPrecision" text-rendering="geometricPrecision" project-id="79fb124358d84ca9b03159556fb2748b" export-id="2b65558ecab74a85b2105bef951aeaa3" cached="false"><g transform="matrix(4 0 0 4-862.804136-1922.01764)"><g transform="matrix(1.1 0 0 1.1 67.33646 323.389906)"><g transform="matrix(1.33 0 0 1.33 66.793066-67.416555)"><ellipse rx="30" ry="30" transform="matrix(.4 0 0 0.401331 63.566345 183.048292)" fill="#bbc4d6" stroke-width="0"/><ellipse rx="30" ry="30" transform="matrix(.6 0 0 0.6 84.079865 177.088222)" fill="#bbc4d6" stroke-width="0"/><rect width="30" height="30" rx="0" ry="0" transform="matrix(.712568 0 0 0.232434 62.702824 188.115202)" fill="#bbc4d6" stroke-width="0"/></g><g transform="matrix(.9 0 0 0.9 101.487469 16.471378)"><ellipse rx="30" ry="30" transform="matrix(.4 0 0 0.401331 63.566345 183.048292)" fill="#8c94a2" stroke-width="0"/><ellipse rx="30" ry="30" transform="matrix(.6 0 0 0.6 84.079865 177.088222)" fill="#8c94a2" stroke-width="0"/><rect width="30" height="30" rx="0" ry="0" transform="matrix(.712568 0 0 0.232434 62.702824 188.115202)" fill="#8c94a2" stroke-width="0"/></g></g><g transform="translate(136.720876 427.483118)"><polygon points="0,-30 25.980762,15 -25.980762,15 0,-30" transform="matrix(.176988 0-.339541 0.588103 117.836583 95.218876)" fill="#fbb500" stroke-width="0"/><polygon points="0,-30 25.980762,8.832086 -25.980762,8.832086 0,-30" transform="matrix(.176988 0 0.393489-.681543 116.907813 106.101682)" fill="#fbb500" stroke-width="0"/></g></g></svg>
